<?xml version="1.0" encoding="UTF-8"?>
<svg xmlns="http://www.w3.org/2000/svg" xmlns:xlink="http://www.w3.org/1999/xlink" width="115px" height="114px" viewBox="0 0 114 114" version="1.1">
<g id="surface1">
<path style=" stroke:none;fill-rule:evenodd;fill:rgb(0%,0%,0%);fill-opacity:1;" d="M 95.019531 34.632812 L 76 34.632812 C 73.820312 34.71875 71.707031 33.890625 70.152344 32.351562 C 68.597656 30.8125 67.742188 28.691406 67.789062 26.492188 L 67.789062 7.066406 L 19.484375 7.066406 C 19.339844 7.070312 19.203125 7.128906 19.101562 7.234375 C 18.980469 7.324219 18.914062 7.476562 18.933594 7.628906 L 18.933594 106.382812 C 18.949219 106.523438 19.007812 106.660156 19.101562 106.765625 C 19.195312 106.875 19.335938 106.9375 19.484375 106.933594 L 94.480469 106.933594 C 94.648438 106.933594 94.636719 106.847656 94.722656 106.765625 C 94.804688 106.679688 95.039062 106.503906 95.039062 106.382812 L 95.039062 34.632812 Z M 101.949219 108.597656 C 101.945312 111.570312 99.554688 113.980469 96.605469 113.984375 L 17.3125 113.984375 C 14.363281 113.980469 11.972656 111.570312 11.96875 108.597656 L 11.96875 5.410156 C 11.964844 3.980469 12.527344 2.609375 13.535156 1.605469 C 14.539062 0.59375 15.894531 0.0273438 17.3125 0.0234375 L 71.34375 0.0234375 C 72.164062 0.03125 72.964844 0.300781 73.625 0.789062 L 101.226562 28.964844 C 101.90625 29.570312 102.1875 30.511719 101.949219 31.394531 Z M 74.21875 25.921875 L 73.820312 9.03125 L 93.386719 29.019531 L 76.554688 28.261719 C 75.929688 28.292969 75.320312 28.058594 74.875 27.613281 C 74.429688 27.167969 74.191406 26.554688 74.21875 25.921875 Z M 74.21875 25.921875 "/>
<path style=" stroke:none;fill-rule:evenodd;fill:rgb(100%,0%,0%);fill-opacity:1;" d="M 6.226562 43.3125 L 107.773438 43.3125 C 111.210938 43.320312 113.996094 46.132812 114 49.597656 L 114 91.78125 C 113.988281 95.242188 111.207031 98.046875 107.773438 98.058594 L 6.226562 98.058594 C 2.789062 98.046875 0.00390625 95.238281 0 91.769531 L 0 49.597656 C 0.0117188 46.136719 2.792969 43.332031 6.226562 43.320312 Z M 6.226562 43.3125 "/>
<path style=" stroke:none;fill-rule:nonzero;fill:rgb(100%,100%,100%);fill-opacity:1;" d="M 12.875 74.269531 L 21.457031 73.730469 C 21.550781 74.875 21.941406 75.980469 22.589844 76.925781 C 23.558594 78.132812 25.042969 78.796875 26.578125 78.714844 C 27.652344 78.777344 28.710938 78.445312 29.558594 77.777344 C 30.207031 77.289062 30.59375 76.523438 30.605469 75.707031 C 30.617188 74.894531 30.253906 74.117188 29.621094 73.605469 C 28.964844 73 27.425781 72.4375 24.984375 71.894531 C 21.027344 71.011719 18.203125 69.820312 16.515625 68.324219 C 14.871094 66.925781 13.941406 64.855469 13.980469 62.691406 C 13.988281 61.164062 14.441406 59.671875 15.289062 58.40625 C 16.257812 56.976562 17.621094 55.863281 19.214844 55.207031 C 21.511719 54.347656 23.953125 53.957031 26.402344 54.058594 C 30.113281 54.058594 32.960938 54.761719 34.949219 56.164062 C 36.914062 57.566406 38.074219 59.800781 38.453125 62.859375 L 29.957031 63.363281 C 29.84375 62.25 29.335938 61.214844 28.527344 60.445312 C 27.671875 59.785156 26.609375 59.453125 25.53125 59.511719 C 24.6875 59.449219 23.84375 59.6875 23.15625 60.183594 C 22.648438 60.574219 22.351562 61.179688 22.359375 61.820312 C 22.371094 62.320312 22.605469 62.78125 23 63.085938 C 23.914062 63.667969 24.945312 64.039062 26.023438 64.167969 C 28.9375 64.699219 31.78125 65.578125 34.492188 66.777344 C 36.011719 67.492188 37.296875 68.625 38.203125 70.042969 C 38.988281 71.363281 39.394531 72.875 39.375 74.410156 C 39.378906 76.269531 38.839844 78.089844 37.824219 79.640625 C 36.761719 81.25 35.257812 82.511719 33.492188 83.269531 C 31.253906 84.160156 28.863281 84.582031 26.460938 84.503906 C 21.511719 84.503906 18.066406 83.539062 16.125 81.613281 C 14.191406 79.640625 13.035156 77.027344 12.878906 74.261719 Z M 69.914062 79.695312 C 71.035156 80.492188 71.769531 80.988281 72.113281 81.191406 C 72.625 81.484375 73.328125 81.828125 74.199219 82.222656 L 71.703125 87.320312 C 70.414062 86.679688 69.175781 85.945312 67.992188 85.121094 C 67.097656 84.542969 66.230469 83.917969 65.394531 83.25 C 63.011719 84.195312 60.460938 84.640625 57.898438 84.558594 C 53.460938 84.558594 49.953125 83.394531 47.378906 81.0625 C 44.34375 78.300781 42.824219 74.421875 42.824219 69.425781 C 42.824219 64.570312 44.152344 60.8125 46.804688 58.117188 C 49.457031 55.425781 53.167969 54.085938 57.9375 54.085938 C 62.707031 54.085938 66.539062 55.394531 69.179688 58.023438 C 71.824219 60.652344 73.097656 64.367188 73.097656 69.238281 C 73.097656 73.605469 72.035156 77.085938 69.914062 79.6875 Z M 62.984375 75.019531 C 63.804688 73.210938 64.179688 71.226562 64.070312 69.238281 C 64.070312 66.269531 63.519531 64.148438 62.417969 62.871094 C 61.257812 61.589844 59.589844 60.902344 57.871094 61 C 56.195312 60.953125 54.585938 61.667969 53.492188 62.953125 C 52.375 64.257812 51.8125 66.285156 51.8125 69.042969 C 51.8125 72.261719 52.359375 74.515625 53.445312 75.8125 C 54.585938 77.089844 56.246094 77.769531 57.945312 77.65625 C 58.53125 77.660156 59.109375 77.59375 59.679688 77.46875 C 58.617188 76.554688 57.394531 75.847656 56.070312 75.382812 L 57.519531 72.136719 C 58.160156 72.234375 58.78125 72.417969 59.375 72.679688 C 60.285156 73.179688 61.160156 73.742188 61.992188 74.363281 C 62.296875 74.578125 62.632812 74.792969 62.992188 75.027344 Z M 77.929688 54.535156 L 86.957031 54.535156 L 86.957031 76.777344 L 101.125 76.777344 L 101.125 84.027344 L 77.929688 84.027344 Z M 77.929688 54.535156 "/>
</g>
</svg>
